<svg width="1728" height="828" viewBox="0 0 1728 828" fill="none" xmlns="http://www.w3.org/2000/svg">
<path d="M-23 60.8382C-20.2096 61.8821 -17.23 62.3248 -14.2564 62.1372C-12.8481 61.998 -11.5636 59.9258 -10.1863 58.936C-7.29238 56.8638 -4.53775 55.4411 -2.17 55.4411C-1.00934 55.4411 1.15723 54.1575 3.37022 54.4359C6.63702 54.9822 9.81669 55.9599 12.8257 57.3432C14.3735 57.4635 15.8956 57.8072 17.3446 58.3639C18.6445 58.8897 20.1921 60.9619 21.9872 61.7042C24.03 62.5547 27.6822 63.3744 30.1428 64.3331C30.8237 64.5806 31.4273 66.1425 34.6617 66.359C37.2925 66.5446 39.6757 68.1064 42.0899 68.6941C43.6375 69.0652 47.1349 68.2611 48.4967 68.6941C50.4002 69.2972 52.5668 72.1426 54.1763 72.7612C55.306 73.2097 56.8535 72.0962 57.8285 72.4829C61.0938 73.7819 61.8985 74.6633 63.508 74.3695C64.7096 74.1238 65.8857 73.7666 67.0209 73.3025C68.5685 72.653 69.5898 70.8282 71.5862 69.7766C72.8397 69.1116 75.7646 69.1116 77.1264 68.3229C77.9466 67.8435 78.4728 66.5136 79.3085 65.9878C80.531 65.23 83.1619 65.2146 84.4154 64.4414C85.0609 64.0939 85.6678 63.6792 86.226 63.2042C87.6019 61.5682 89.4686 60.4186 91.5496 59.9258C92.3844 59.5819 93.196 59.1841 93.9792 58.735C95.1244 58.07 95.403 56.0597 96.347 55.271C98.4207 53.5235 99.5813 53.5699 101.299 51.776C102.228 50.8018 104.394 48.4203 105.245 47.3996C106.097 46.379 106.422 44.9872 107.273 43.9201C108.42 43.2552 109.741 42.9483 111.064 43.0387C113.68 43.0387 114.268 43.9201 114.268 43.9201C114.268 43.9201 117.502 43.0077 118.059 41.585C118.059 41.585 122.237 38.121 122.284 38.0901C122.33 38.0592 127.375 36.9303 128.257 35.1828C130.873 34.023 132.188 31.1002 134.804 29.9403L140.344 27.1722C140.344 27.1722 145.141 28.6259 147.045 27.6052C147.524 27.6052 147.726 25.4402 148.793 23.3835C149.459 22.0844 151.889 20.6617 152.724 19.0225C154.009 16.5482 153.482 14.3832 155.046 12.3264C155.723 11.4295 156.607 10.7094 157.623 10.2275C158.639 9.74549 159.756 9.51591 160.88 9.55829C161.607 9.55829 164.501 7.84175 165.677 8.01186C167.689 8.22836 169.004 8.27475 171.945 8.73868C174.885 9.20262 179.094 9.43459 182.576 10.0532C186.058 10.6717 188.952 14.244 192.481 14.8471C196.628 15.5585 198.191 13.6099 201.658 14.7079C207.198 16.4554 211.995 14.5533 215.586 16.4554C216.081 16.4554 217.133 17.2596 218.681 18.6514C219.826 19.7339 220.383 21.837 222.039 23.4298C223.695 25.0227 226.31 24.5588 228.229 26.3526C229.777 27.7135 232.655 30.9919 234.419 32.3219C236.478 33.992 237.097 36.6364 239.371 38.1365C241.909 39.8221 245.237 39.1107 247.96 40.317C252.51 42.3428 256.812 44.3532 261.501 43.9665C262.368 43.8892 263.281 43.7809 264.271 43.6572C266.639 43.3634 269.208 41.7551 272.133 41.1984C275.058 40.6417 278.927 41.0902 282.331 40.317C284.869 39.7448 286.881 37.7499 289.466 37.1158C291.385 36.6519 294.449 37.7344 296.321 37.2705C298.704 36.6519 300.19 34.657 302.434 34.0693C310.172 32.0435 313.267 32.9559 316.702 32.028C320.138 31.1002 324.703 27.7598 330.073 27.8526C334.716 27.9454 336.573 24.7598 340.442 23.5845C345.348 22.0381 349.727 22.5174 351.662 20.9555C352.822 20.0586 357.016 19.7339 361.891 20.1669C365.559 20.4762 368.483 23.6773 372.925 22.7803C375.107 22.3473 380.988 22.9504 384.284 23.4298C387.58 23.9092 391.356 26.0588 394.56 26.6C396.773 26.9866 399.852 26.1052 401.771 26.4918C407.544 27.6362 408.472 28.0382 409.509 28.997C410.236 29.6465 413.362 30.2032 415.838 31.7342C417.99 33.0487 418.438 35.5384 421.41 37.1931C424.381 38.8478 426.981 38.1674 429.828 41.0128C431.376 42.5593 435.183 42.9768 437.442 44.7707C439.346 46.3171 442.255 46.1161 443.88 47.6935C446.325 50.075 450.442 51.3895 452.763 52.1472C455.765 53.1215 457.065 52.1472 458.845 52.1472C460.3 52.1472 462.946 51.9771 466.428 51.7915C469.198 51.6523 471.194 51.4822 474.831 51.2966C477.617 51.1575 480.913 51.8843 484.008 51.7451C486.391 51.6214 488.186 49.8894 490.678 49.7812C493.68 49.642 496.945 51.3276 499.963 51.1884C502.981 51.0492 506.54 48.977 509.357 48.8997C512.669 48.8069 516.305 50.4461 519.292 50.4461C522.279 50.4461 525.854 48.544 528.361 48.5904C531.362 48.5905 534.322 49.3006 536.996 50.6626C539.155 51.898 541.2 53.3211 543.109 54.9153C545.306 56.5855 547.968 59.4 550.754 61.797C553.06 63.7919 555.892 64.4104 558.321 66.6682C562.082 70.1477 561.896 72.3591 565.177 75.7768C568.179 78.8696 574.246 80.4161 575.112 83.3079C576.211 86.9111 581.705 93.0041 581.674 93.9938C581.674 96.0506 580.312 98.9733 580.358 101.2C580.358 103.752 579.322 104.54 579.492 107.216C579.677 110.494 581.643 113.943 581.937 117.221C582.231 120.5 580.885 123.654 581.225 126.639C581.72 130.907 583.902 134.742 584.32 138.067C584.691 140.882 585.016 143.263 585.249 145.011C586.471 154.552 584.243 158.202 586.796 160.583C588.243 162.038 589.553 163.622 590.711 165.316C592.259 167.481 591.779 170.527 593.807 173.249C595.617 175.708 599.13 178.553 601.451 181.105C603.773 183.656 603.231 185.837 605.939 187.986C609.622 190.925 615.658 190.492 620.688 195.193C622.653 197.033 627.589 196.6 630.483 197.249C633.57 198.122 636.722 198.748 639.908 199.121C641.966 199.26 643.932 197.744 645.82 197.868C648.915 198.069 652.753 198.842 655.414 199.012C658.819 199.244 661.605 197.899 664.375 198.146C668.182 198.471 670.936 201.394 673.877 201.858C677.142 202.353 681.614 201.239 684.261 202.074C691.395 204.379 688.021 202.291 695.094 209.606C696.533 211.152 699.504 212.343 700.882 213.642C702.259 214.941 702.197 216.735 703.837 217.755C706.205 219.302 709.053 218.699 710.337 222.673C711.219 225.426 714.98 225.673 717.208 226.864C720.489 228.627 724.76 227.049 726.88 229.245C729 231.441 731.523 233.56 734.309 233.885C736.212 234.147 738.564 236.297 741.18 239.653C742.588 241.478 742.526 245.282 744.058 247.71C745.404 249.844 748.345 250.54 749.722 252.983C751.099 255.426 750.418 257.792 751.78 260.375C753.003 262.664 756.562 264.164 757.754 266.483C758.946 268.803 759.688 271.803 760.849 273.937C762.103 276.443 761.484 279.164 762.644 281.468C763.805 283.773 765.863 288.103 766.869 290.067C769.314 294.892 773.26 293.902 774.436 295.448C774.901 296.051 775.535 298.897 778.212 299.593C782.113 300.317 786.111 300.344 790.02 299.67C793.394 299.237 796.799 303.351 800.281 303.985C808.792 305.531 811.547 304.68 814.642 306.954C817.006 308.552 819.466 310.003 822.008 311.299C824.438 312.598 828.075 311.98 830.953 313.356C834.141 314.902 839.882 319.047 843.039 320.33C846.502 321.807 850.203 322.646 853.965 322.805C856.735 323.114 856.72 326.362 861.099 326.887C863.126 327.135 869.317 324.63 871.344 324.862C873.371 325.093 877.07 323.315 878.726 323.532C882.641 323.996 887.856 329.207 889.651 329.362C894.898 329.795 902.326 333.429 908.439 334.31C909.584 334.48 914.196 332.98 919.364 333.15C924.007 333.29 929.207 332.857 935.242 335.161C941.711 337.635 943.909 335.408 948.195 335.161C952.482 334.913 957.481 332.609 962.03 332.516C966.58 332.424 970.031 337.248 973.544 335.284C977.057 333.321 983.82 336.321 987.472 336.011C989.747 335.826 990.815 333.475 992.718 333.243C995.855 332.975 998.941 332.289 1001.9 331.202C1003.68 330.57 1005.61 330.426 1007.47 330.784C1010.2 330.907 1012.91 331.243 1015.59 331.79C1018.07 332.571 1020.35 333.862 1022.29 335.578C1022.29 335.578 1024.1 335.254 1027.09 334.991C1029.6 334.774 1033.65 336.336 1037.44 336.444C1040.65 336.537 1045.03 332.099 1047.64 334.697C1051.28 338.331 1055.78 335.81 1059.43 337.326C1063.09 338.841 1065.5 342.46 1068.61 345.182C1069.11 345.615 1071.97 345.754 1076.18 345.708C1079.92 345.708 1084.43 343.836 1089.58 343.573C1093.85 343.357 1098.66 344.764 1103 344.486C1106.09 344.285 1109.96 341.3 1112.75 341.099C1118.12 340.922 1123.45 342.126 1128.22 344.594C1128.22 344.594 1134.2 347.687 1139.58 346.929C1143.51 346.388 1142.52 353.115 1144.98 358.868C1145.41 359.873 1156.05 369.492 1154.85 373.667C1153.54 378.306 1157.11 383.734 1157.66 390.013C1157.83 392.008 1156.11 395.843 1156.19 398.008C1156.28 400.652 1158.14 401.658 1158.09 404.565C1158.01 408.261 1160.98 412.081 1161.43 416.782C1161.73 419.875 1159.39 423.493 1159.81 426.71C1160.05 428.72 1162.45 431.349 1162.75 433.375C1163.15 436.251 1161.9 438.525 1161.88 441.386C1161.88 444.602 1157.53 445.236 1163.43 451.592C1165.53 453.881 1164.25 457.561 1164.54 460.159C1164.64 460.994 1172.08 458.613 1174.59 461.613C1176.77 464.242 1177.43 465.201 1181.5 465.742C1184.97 466.221 1188.99 464.953 1192.65 464.814C1196.3 464.675 1199.9 465.649 1203.28 464.52C1207.21 463.221 1212.28 464.226 1214.2 460.747C1216.12 457.267 1216.79 452.597 1219.31 451.144C1221.83 449.69 1225.5 449.272 1228.6 447.788C1231.07 446.582 1233.5 445.314 1235.87 443.984C1239.92 441.71 1243.14 437.458 1247.55 436.885C1256.7 435.71 1260.6 428.782 1264.85 425.813C1269.5 422.612 1269.37 418.668 1273.17 416.349C1277.98 413.411 1282.87 414.215 1286.27 413.952C1290.14 413.658 1295.25 416.225 1300.7 418.096C1305.21 419.643 1307.03 417.416 1311.03 419.55C1313.79 421.096 1320.32 423.23 1322.25 424.653C1324.19 426.076 1324.56 429.648 1325.16 430.839C1326.57 433.23 1327.55 435.846 1328.07 438.571C1328.46 441.664 1325.66 445.468 1327.64 448.314C1329.19 450.525 1333.53 451.407 1337.39 452.69C1339.11 453.293 1337.99 452.783 1342.34 451.963C1344.51 451.546 1351.02 448.87 1353.42 448.468C1355.82 448.066 1361.7 450.788 1364.05 450.649C1366.65 450.494 1366.23 449.597 1368.42 450.061C1369.67 450.339 1372.92 449.628 1374.25 450.061C1376.56 450.819 1376.97 452.845 1379.31 453.865C1380.74 454.499 1383.78 453.061 1385.18 453.711C1387.16 454.623 1387.44 457.623 1389.18 458.35C1391.46 459.514 1393.88 460.377 1396.38 460.917C1401.63 461.582 1401.41 452.907 1411.67 456.989C1413.98 457.902 1412.49 461.273 1419.1 464.721C1422.09 466.268 1424.07 470.66 1425.66 474.325C1427.42 478.392 1427.52 483.139 1429.19 487.176C1430.36 490.006 1430.49 494.351 1431.63 496.733C1433.4 500.444 1436.15 501.743 1437.82 503.289C1445.69 510.279 1453.55 508.532 1453.55 508.532C1453.55 508.532 1477.15 503.893 1481.08 505.037C1485.01 506.181 1511.22 511.362 1512.97 515.073C1514.76 518.691 1515.66 522.684 1515.59 526.718C1515.59 530.6 1511.78 537.234 1511.66 542.182C1511.55 546.822 1517.18 549.219 1517.06 554.121C1516.93 559.023 1512.51 564.822 1512.42 569.585C1512.32 574.348 1511.66 581.385 1509.63 583.503C1505.92 587.478 1512.52 592.086 1512.97 593.246C1513.65 595.009 1517.37 595.937 1519.16 598.643C1520.71 600.854 1517.49 605.664 1519.74 607.659C1521.28 609.081 1526.45 608.911 1526.16 611.927C1525.93 614.324 1530.54 613.025 1531.68 617.71C1532.07 619.257 1534.1 620.989 1537.18 622.721C1539.41 623.989 1543.99 622.999 1547.13 624.267C1550.7 625.721 1550.84 628.458 1554.99 629.804C1558.08 630.778 1560.72 629.51 1563.73 630.376C1566.19 631.103 1571.08 635.015 1573.39 635.556C1576.81 636.469 1579.97 635.262 1582.67 635.912C1586.16 636.747 1588.87 639.314 1590.26 639.546C1592.49 639.762 1594.74 639.716 1596.96 639.407C1599.05 639.206 1608.86 636.314 1611.52 635.912C1618.47 635 1619.92 634.103 1628.54 633.299C1633.19 632.866 1639.38 635.51 1643.83 635.479C1648.29 635.448 1650.71 635 1654.47 635.618C1656.51 635.967 1658.58 636.169 1660.66 636.221C1664.48 636.299 1667.51 633.128 1670.7 632.417C1674.86 631.505 1678.07 633.964 1681.33 632.711C1683.06 632.031 1686.22 629.17 1687.75 628.644C1690.39 627.705 1693.27 627.705 1695.91 628.644C1697.19 628.999 1700.55 628.829 1702.89 629.958C1705.23 631.087 1705.13 633.608 1708.13 635.34C1710.25 636.577 1713.97 637.768 1716.29 639.283C1718.87 641 1720.45 644.495 1723.15 646.552C1725.1 648.098 1728.16 648.098 1730.09 649.753C1732.03 651.407 1736.58 652.969 1737.2 655.397C1737.72 657.5 1742.99 658.119 1742 661.073C1741.24 663.361 1745.54 666.408 1747.24 668.712C1748.68 670.66 1747.75 673.846 1748.99 675.918C1750.23 677.991 1752.43 679.583 1753.14 681.919C1753.32 683.836 1754.13 687.548 1754.24 689.341C1754.41 692.187 1753.12 693.13 1753.14 695.682C1753.14 698.574 1755.12 700.94 1754.99 703.414C1754.9 705.533 1752.89 707.265 1752.7 709.089C1752.43 711.889 1754.14 715.121 1753.8 717.162C1753.46 719.937 1752.32 722.553 1750.52 724.693C1748.62 725.515 1747.08 726.983 1746.16 728.838C1745.34 730.523 1747.88 732.131 1746.81 734.405C1745.74 736.678 1742.17 738.797 1741.78 741.951C1741.39 744.642 1746.42 749.807 1737.89 751.941C1735.12 752.637 1738.19 757.495 1737.2 760C1736.7 761.222 1743.96 766.385 1740.87 766.385C1739.32 770.375 1749.66 769.989 1749.05 772.726C1748.71 774.298 1742.21 775.847 1741.69 777.365C1740.76 779.948 1738.2 780.551 1737.2 782.298C1735.85 784.618 1738 788.304 1737.2 790.5C1736.39 792.696 1736.66 793.603 1737.2 797.5C1737.5 799.423 1740.14 800.193 1740.87 802C1741.56 803.778 1739.87 806.717 1740.87 808.603C1741.86 810.49 1740.59 813.49 1741.59 815.145C1742.82 817.186 1749.66 820.248 1750.88 822.135" stroke="#E7E2DB" stroke-width="15" stroke-miterlimit="10"/>
</svg>
